<svg width="14" height="14" viewBox="0 0 14 14" fill="none" xmlns="http://www.w3.org/2000/svg">
<g id="mdi:instagram">
<path id="Vector" d="M4.54935 1.16602H9.44935C11.316 1.16602 12.8327 2.68268 12.8327 4.54935V9.44935C12.8327 10.3467 12.4762 11.2072 11.8417 11.8417C11.2072 12.4762 10.3467 12.8327 9.44935 12.8327H4.54935C2.68268 12.8327 1.16602 11.316 1.16602 9.44935V4.54935C1.16602 3.65203 1.52247 2.79147 2.15697 2.15697C2.79147 1.52247 3.65203 1.16602 4.54935 1.16602ZM4.43268 2.33268C3.87573 2.33268 3.34158 2.55393 2.94776 2.94776C2.55393 3.34158 2.33268 3.87573 2.33268 4.43268V9.56602C2.33268 10.7268 3.27185 11.666 4.43268 11.666H9.56602C10.123 11.666 10.6571 11.4448 11.0509 11.0509C11.4448 10.6571 11.666 10.123 11.666 9.56602V4.43268C11.666 3.27185 10.7268 2.33268 9.56602 2.33268H4.43268ZM10.0618 3.20768C10.2552 3.20768 10.4407 3.28451 10.5774 3.42125C10.7142 3.558 10.791 3.74346 10.791 3.93685C10.791 4.13024 10.7142 4.3157 10.5774 4.45245C10.4407 4.58919 10.2552 4.66602 10.0618 4.66602C9.86846 4.66602 9.683 4.58919 9.54625 4.45245C9.4095 4.3157 9.33268 4.13024 9.33268 3.93685C9.33268 3.74346 9.4095 3.558 9.54625 3.42125C9.683 3.28451 9.86846 3.20768 10.0618 3.20768ZM6.99935 4.08268C7.7729 4.08268 8.51476 4.38997 9.06174 4.93695C9.60873 5.48394 9.91602 6.2258 9.91602 6.99935C9.91602 7.7729 9.60873 8.51476 9.06174 9.06174C8.51476 9.60873 7.7729 9.91602 6.99935 9.91602C6.2258 9.91602 5.48394 9.60873 4.93695 9.06174C4.38997 8.51476 4.08268 7.7729 4.08268 6.99935C4.08268 6.2258 4.38997 5.48394 4.93695 4.93695C5.48394 4.38997 6.2258 4.08268 6.99935 4.08268ZM6.99935 5.24935C6.53522 5.24935 6.0901 5.43372 5.76191 5.76191C5.43372 6.0901 5.24935 6.53522 5.24935 6.99935C5.24935 7.46348 5.43372 7.9086 5.76191 8.23679C6.0901 8.56498 6.53522 8.74935 6.99935 8.74935C7.46348 8.74935 7.9086 8.56498 8.23679 8.23679C8.56498 7.9086 8.74935 7.46348 8.74935 6.99935C8.74935 6.53522 8.56498 6.0901 8.23679 5.76191C7.9086 5.43372 7.46348 5.24935 6.99935 5.24935Z" fill="#001C33"/>
</g>
</svg>
