<svg width="14" height="14" viewBox="0 0 14 14" fill="none" xmlns="http://www.w3.org/2000/svg">
<g id="mingcute:youtube-line" clip-path="url(#clip0_1918_1382)">
<g id="Group">
<path id="Vector" d="M6.99935 2.33398C7.4981 2.33398 8.00968 2.34682 8.50552 2.36782L9.09118 2.39582L9.65177 2.42907L10.1768 2.46465L10.6563 2.50198C11.1766 2.54181 11.6663 2.76387 12.0391 3.12909C12.4119 3.49431 12.6439 3.9793 12.6944 4.49873L12.7178 4.74665L12.7615 5.27748C12.8024 5.82757 12.8327 6.42723 12.8327 7.00065C12.8327 7.57407 12.8024 8.17373 12.7615 8.72382L12.7178 9.25465C12.7102 9.33982 12.7026 9.42207 12.6944 9.50257C12.6439 10.0221 12.4118 10.5072 12.0389 10.8724C11.6659 11.2376 11.1761 11.4596 10.6557 11.4993L10.1773 11.5361L9.65235 11.5722L9.09118 11.6055L8.50552 11.6335C8.00375 11.6553 7.50159 11.6666 6.99935 11.6673C6.49711 11.6666 5.99495 11.6553 5.49318 11.6335L4.90752 11.6055L4.34693 11.5722L3.82193 11.5361L3.34243 11.4993C2.82207 11.4595 2.33242 11.2374 1.95962 10.8722C1.58683 10.507 1.35477 10.022 1.30427 9.50257L1.28093 9.25465L1.23718 8.72382C1.19258 8.15048 1.16884 7.57571 1.16602 7.00065C1.16602 6.42723 1.19635 5.82757 1.23718 5.27748L1.28093 4.74665C1.28852 4.66148 1.2961 4.57923 1.30427 4.49873C1.35475 3.97939 1.58673 3.49448 1.9594 3.12927C2.33208 2.76406 2.82159 2.54194 3.34185 2.50198L3.82077 2.46465L4.34577 2.42907L4.90693 2.39582L5.4926 2.36782C5.99456 2.34602 6.49692 2.33474 6.99935 2.33398ZM6.99935 3.50065C6.5181 3.50065 6.02285 3.51348 5.54102 3.53332L4.97052 3.56073L4.42277 3.59282L3.90827 3.62782L3.43693 3.66457C3.18921 3.68214 2.95571 3.78686 2.77782 3.96016C2.59993 4.13345 2.48915 4.36414 2.4651 4.61132C2.39685 5.31657 2.33268 6.19448 2.33268 7.00065C2.33268 7.80682 2.39685 8.68473 2.4651 9.38998C2.51468 9.89865 2.91835 10.2942 3.43693 10.3367L3.90827 10.3729L4.42277 10.4079L4.97052 10.4406L5.54102 10.468C6.02285 10.4878 6.5181 10.5007 6.99935 10.5007C7.4806 10.5007 7.97585 10.4878 8.45768 10.468L9.02818 10.4406L9.57593 10.4085L10.0904 10.3735L10.5618 10.3367C10.8095 10.3192 11.043 10.2144 11.2209 10.0411C11.3988 9.86785 11.5096 9.63716 11.5336 9.38998C11.6019 8.68473 11.666 7.80682 11.666 7.00065C11.666 6.19448 11.6019 5.31657 11.5336 4.61132C11.5096 4.36414 11.3988 4.13345 11.2209 3.96016C11.043 3.78686 10.8095 3.68214 10.5618 3.66457L10.0904 3.6284L9.57593 3.5934L9.02818 3.56073L8.45768 3.53332C7.97185 3.51241 7.48563 3.50152 6.99935 3.50065ZM5.83268 5.58607C5.83264 5.52905 5.84654 5.4729 5.87315 5.42247C5.89976 5.37205 5.93828 5.3289 5.98537 5.29675C6.03246 5.26461 6.08669 5.24446 6.14334 5.23805C6.19999 5.23165 6.25735 5.23917 6.31043 5.25998L6.35768 5.28332L8.80768 6.69732C8.85647 6.72547 8.89774 6.76498 8.928 6.81249C8.95825 6.86 8.97659 6.91411 8.98145 6.97023C8.98632 7.02634 8.97757 7.08281 8.95595 7.13482C8.93433 7.18683 8.90048 7.23285 8.85727 7.26898L8.80768 7.30398L6.35768 8.71857C6.30831 8.74716 6.2527 8.76324 6.19569 8.76543C6.13868 8.76761 6.082 8.75583 6.03058 8.7311C5.97917 8.70637 5.93458 8.66944 5.9007 8.62354C5.86681 8.57764 5.84467 8.52415 5.83618 8.46773L5.83268 8.41523V5.58607Z" fill="#001C33"/>
</g>
</g>
<defs>
<clipPath id="clip0_1918_1382">
<rect width="14" height="14" fill="white"/>
</clipPath>
</defs>
</svg>
